STARTFONT 0.0
SIZE 13 72 72
FONTBOUNDINGBOX 5 11 0 -2
STARTPROPERTIES 20
FAMILY_NAME "Spleen"
WEIGHT_NAME "Medium"
FONT_VERSION "2.2.0"
FOUNDRY "misc"
SLANT "R"
SETWIDTH_NAME "Normal"
PIXEL_SIZE 12
POINT_SIZE 120
RESOLUTION_X 72
RESOLUTION_Y 72
SPACING "C"
AVERAGE_WIDTH 60
CHARSET_REGISTRY "ISO10646"
CHARSET_ENCODING "1"
MIN_SPACE 6
FONT_DESCENT 2
FONT_ASCENT 9
DEFAULT_CHAR 32
ENDPROPERTIES
CHARS 102
STARTCHAR
ENCODING 32
SWIDTH 500 0
DWIDTH 6 0
BBX 0 0 0 0
BITMAP
ENDCHAR
STARTCHAR
ENCODING 33
SWIDTH 500 0
DWIDTH 6 0
BBX 1 7 2 0
BITMAP
80
80
80
80
80
00
80
ENDCHAR
STARTCHAR
ENCODING 34
SWIDTH 500 0
DWIDTH 6 0
BBX 3 2 1 5
BITMAP
A0
A0
ENDCHAR
STARTCHAR
ENCODING 35
SWIDTH 500 0
DWIDTH 6 0
BBX 5 7 0 0
BITMAP
50
50
F8
50
F8
50
50
ENDCHAR
STARTCHAR
ENCODING 36
SWIDTH 500 0
DWIDTH 6 0
BBX 5 9 0 -1
BITMAP
20
70
A8
A0
70
28
A8
70
20
ENDCHAR
STARTCHAR
ENCODING 37
SWIDTH 500 0
DWIDTH 6 0
BBX 5 7 0 0
BITMAP
C8
D0
10
20
40
58
98
ENDCHAR
STARTCHAR
ENCODING 38
SWIDTH 500 0
DWIDTH 6 0
BBX 5 7 0 0
BITMAP
60
90
80
40
A8
90
68
ENDCHAR
STARTCHAR
ENCODING 39
SWIDTH 500 0
DWIDTH 6 0
BBX 1 2 2 5
BITMAP
80
80
ENDCHAR
STARTCHAR
ENCODING 40
SWIDTH 500 0
DWIDTH 6 0
BBX 2 7 2 0
BITMAP
40
80
80
80
80
80
40
ENDCHAR
STARTCHAR
ENCODING 41
SWIDTH 500 0
DWIDTH 6 0
BBX 2 7 1 0
BITMAP
80
40
40
40
40
40
80
ENDCHAR
STARTCHAR
ENCODING 42
SWIDTH 500 0
DWIDTH 6 0
BBX 5 5 0 1
BITMAP
20
A8
70
A8
20
ENDCHAR
STARTCHAR
ENCODING 43
SWIDTH 500 0
DWIDTH 6 0
BBX 5 5 0 1
BITMAP
20
20
F8
20
20
ENDCHAR
STARTCHAR
ENCODING 44
SWIDTH 500 0
DWIDTH 6 0
BBX 2 2 1 -1
BITMAP
40
80
ENDCHAR
STARTCHAR
ENCODING 45
SWIDTH 500 0
DWIDTH 6 0
BBX 5 1 0 3
BITMAP
F8
ENDCHAR
STARTCHAR
ENCODING 46
SWIDTH 500 0
DWIDTH 6 0
BBX 1 1 2 0
BITMAP
80
ENDCHAR
STARTCHAR
ENCODING 47
SWIDTH 500 0
DWIDTH 6 0
BBX 5 7 0 0
BITMAP
08
10
10
20
40
40
80
ENDCHAR
STARTCHAR
ENCODING 48
SWIDTH 500 0
DWIDTH 6 0
BBX 5 7 0 0
BITMAP
70
88
88
A8
88
88
70
ENDCHAR
STARTCHAR
ENCODING 49
SWIDTH 500 0
DWIDTH 6 0
BBX 5 7 0 0
BITMAP
20
60
20
20
20
20
F8
ENDCHAR
STARTCHAR
ENCODING 50
SWIDTH 500 0
DWIDTH 6 0
BBX 5 7 0 0
BITMAP
70
88
08
10
20
40
F8
ENDCHAR
STARTCHAR
ENCODING 51
SWIDTH 500 0
DWIDTH 6 0
BBX 5 7 0 0
BITMAP
70
88
08
30
08
88
70
ENDCHAR
STARTCHAR
ENCODING 52
SWIDTH 500 0
DWIDTH 6 0
BBX 5 7 0 0
BITMAP
18
28
48
88
F8
08
08
ENDCHAR
STARTCHAR
ENCODING 53
SWIDTH 500 0
DWIDTH 6 0
BBX 5 7 0 0
BITMAP
F8
80
80
F0
08
08
F0
ENDCHAR
STARTCHAR
ENCODING 54
SWIDTH 500 0
DWIDTH 6 0
BBX 5 7 0 0
BITMAP
70
88
80
F0
88
88
70
ENDCHAR
STARTCHAR
ENCODING 55
SWIDTH 500 0
DWIDTH 6 0
BBX 5 7 0 0
BITMAP
F8
08
10
20
40
40
40
ENDCHAR
STARTCHAR
ENCODING 56
SWIDTH 500 0
DWIDTH 6 0
BBX 5 7 0 0
BITMAP
70
88
88
70
88
88
70
ENDCHAR
STARTCHAR
ENCODING 57
SWIDTH 500 0
DWIDTH 6 0
BBX 5 7 0 0
BITMAP
78
88
88
78
08
08
08
ENDCHAR
STARTCHAR
ENCODING 58
SWIDTH 500 0
DWIDTH 6 0
BBX 1 5 2 1
BITMAP
80
00
00
00
80
ENDCHAR
STARTCHAR
ENCODING 59
SWIDTH 500 0
DWIDTH 6 0
BBX 2 7 1 -1
BITMAP
40
00
00
00
40
40
80
ENDCHAR
STARTCHAR
ENCODING 60
SWIDTH 500 0
DWIDTH 6 0
BBX 3 5 1 1
BITMAP
20
40
80
40
20
ENDCHAR
STARTCHAR
ENCODING 61
SWIDTH 500 0
DWIDTH 6 0
BBX 5 3 0 2
BITMAP
F8
00
F8
ENDCHAR
STARTCHAR
ENCODING 62
SWIDTH 500 0
DWIDTH 6 0
BBX 3 5 1 1
BITMAP
80
40
20
40
80
ENDCHAR
STARTCHAR
ENCODING 63
SWIDTH 500 0
DWIDTH 6 0
BBX 5 7 0 0
BITMAP
70
88
08
10
20
00
20
ENDCHAR
STARTCHAR
ENCODING 64
SWIDTH 500 0
DWIDTH 6 0
BBX 5 7 0 0
BITMAP
70
88
A8
A8
B8
80
70
ENDCHAR
STARTCHAR
ENCODING 65
SWIDTH 500 0
DWIDTH 6 0
BBX 5 7 0 0
BITMAP
20
50
88
88
F8
88
88
ENDCHAR
STARTCHAR
ENCODING 66
SWIDTH 500 0
DWIDTH 6 0
BBX 5 7 0 0
BITMAP
F0
88
88
F0
88
88
F0
ENDCHAR
STARTCHAR
ENCODING 67
SWIDTH 500 0
DWIDTH 6 0
BBX 5 7 0 0
BITMAP
70
88
80
80
80
88
70
ENDCHAR
STARTCHAR
ENCODING 68
SWIDTH 500 0
DWIDTH 6 0
BBX 5 7 0 0
BITMAP
F0
88
88
88
88
88
F0
ENDCHAR
STARTCHAR
ENCODING 69
SWIDTH 500 0
DWIDTH 6 0
BBX 5 7 0 0
BITMAP
F8
80
80
F0
80
80
F8
ENDCHAR
STARTCHAR
ENCODING 70
SWIDTH 500 0
DWIDTH 6 0
BBX 5 7 0 0
BITMAP
F8
80
80
F0
80
80
80
ENDCHAR
STARTCHAR
ENCODING 71
SWIDTH 500 0
DWIDTH 6 0
BBX 5 7 0 0
BITMAP
70
88
80
B8
88
88
70
ENDCHAR
STARTCHAR
ENCODING 72
SWIDTH 500 0
DWIDTH 6 0
BBX 5 7 0 0
BITMAP
88
88
88
F8
88
88
88
ENDCHAR
STARTCHAR
ENCODING 73
SWIDTH 500 0
DWIDTH 6 0
BBX 5 7 0 0
BITMAP
F8
20
20
20
20
20
F8
ENDCHAR
STARTCHAR
ENCODING 74
SWIDTH 500 0
DWIDTH 6 0
BBX 5 7 0 0
BITMAP
08
08
08
08
88
88
70
ENDCHAR
STARTCHAR
ENCODING 75
SWIDTH 500 0
DWIDTH 6 0
BBX 5 7 0 0
BITMAP
88
90
A0
C0
A0
90
88
ENDCHAR
STARTCHAR
ENCODING 76
SWIDTH 500 0
DWIDTH 6 0
BBX 5 7 0 0
BITMAP
80
80
80
80
80
80
F8
ENDCHAR
STARTCHAR
ENCODING 77
SWIDTH 500 0
DWIDTH 6 0
BBX 5 7 0 0
BITMAP
88
D8
A8
88
88
88
88
ENDCHAR
STARTCHAR
ENCODING 78
SWIDTH 500 0
DWIDTH 6 0
BBX 5 7 0 0
BITMAP
88
C8
A8
98
88
88
88
ENDCHAR
STARTCHAR
ENCODING 79
SWIDTH 500 0
DWIDTH 6 0
BBX 5 7 0 0
BITMAP
70
88
88
88
88
88
70
ENDCHAR
STARTCHAR
ENCODING 80
SWIDTH 500 0
DWIDTH 6 0
BBX 5 7 0 0
BITMAP
F0
88
88
F0
80
80
80
ENDCHAR
STARTCHAR
ENCODING 81
SWIDTH 500 0
DWIDTH 6 0
BBX 5 8 0 -1
BITMAP
70
88
88
88
88
88
70
18
ENDCHAR
STARTCHAR
ENCODING 82
SWIDTH 500 0
DWIDTH 6 0
BBX 5 7 0 0
BITMAP
F0
88
88
F0
A0
90
88
ENDCHAR
STARTCHAR
ENCODING 83
SWIDTH 500 0
DWIDTH 6 0
BBX 5 7 0 0
BITMAP
70
88
80
70
08
88
70
ENDCHAR
STARTCHAR
ENCODING 84
SWIDTH 500 0
DWIDTH 6 0
BBX 5 7 0 0
BITMAP
F8
20
20
20
20
20
20
ENDCHAR
STARTCHAR
ENCODING 85
SWIDTH 500 0
DWIDTH 6 0
BBX 5 7 0 0
BITMAP
88
88
88
88
88
88
70
ENDCHAR
STARTCHAR
ENCODING 86
SWIDTH 500 0
DWIDTH 6 0
BBX 5 7 0 0
BITMAP
88
88
88
88
88
50
20
ENDCHAR
STARTCHAR
ENCODING 87
SWIDTH 500 0
DWIDTH 6 0
BBX 5 7 0 0
BITMAP
88
88
88
88
A8
A8
50
ENDCHAR
STARTCHAR
ENCODING 88
SWIDTH 500 0
DWIDTH 6 0
BBX 5 7 0 0
BITMAP
88
88
50
20
50
88
88
ENDCHAR
STARTCHAR
ENCODING 89
SWIDTH 500 0
DWIDTH 6 0
BBX 5 7 0 0
BITMAP
88
88
88
50
20
20
20
ENDCHAR
STARTCHAR
ENCODING 90
SWIDTH 500 0
DWIDTH 6 0
BBX 5 7 0 0
BITMAP
F8
08
10
20
40
80
F8
ENDCHAR
STARTCHAR
ENCODING 91
SWIDTH 500 0
DWIDTH 6 0
BBX 2 7 2 0
BITMAP
C0
80
80
80
80
80
C0
ENDCHAR
STARTCHAR
ENCODING 92
SWIDTH 500 0
DWIDTH 6 0
BBX 5 7 0 0
BITMAP
80
40
40
20
10
10
08
ENDCHAR
STARTCHAR
ENCODING 93
SWIDTH 500 0
DWIDTH 6 0
BBX 2 7 1 0
BITMAP
C0
40
40
40
40
40
C0
ENDCHAR
STARTCHAR
ENCODING 94
SWIDTH 500 0
DWIDTH 6 0
BBX 5 3 0 4
BITMAP
20
50
88
ENDCHAR
STARTCHAR
ENCODING 95
SWIDTH 500 0
DWIDTH 6 0
BBX 5 1 0 0
BITMAP
F8
ENDCHAR
STARTCHAR
ENCODING 96
SWIDTH 500 0
DWIDTH 6 0
BBX 2 2 1 5
BITMAP
80
40
ENDCHAR
STARTCHAR
ENCODING 97
SWIDTH 500 0
DWIDTH 6 0
BBX 5 5 0 0
BITMAP
78
88
88
88
78
ENDCHAR
STARTCHAR
ENCODING 98
SWIDTH 500 0
DWIDTH 6 0
BBX 5 7 0 0
BITMAP
80
80
F0
88
88
88
F0
ENDCHAR
STARTCHAR
ENCODING 99
SWIDTH 500 0
DWIDTH 6 0
BBX 5 5 0 0
BITMAP
70
88
80
88
70
ENDCHAR
STARTCHAR
ENCODING 100
SWIDTH 500 0
DWIDTH 6 0
BBX 5 7 0 0
BITMAP
08
08
78
88
88
88
78
ENDCHAR
STARTCHAR
ENCODING 101
SWIDTH 500 0
DWIDTH 6 0
BBX 5 5 0 0
BITMAP
70
88
F8
80
78
ENDCHAR
STARTCHAR
ENCODING 102
SWIDTH 500 0
DWIDTH 6 0
BBX 5 7 0 0
BITMAP
18
20
F8
20
20
20
20
ENDCHAR
STARTCHAR
ENCODING 103
SWIDTH 500 0
DWIDTH 6 0
BBX 5 7 0 -2
BITMAP
78
88
88
88
78
08
70
ENDCHAR
STARTCHAR
ENCODING 104
SWIDTH 500 0
DWIDTH 6 0
BBX 5 7 0 0
BITMAP
80
80
F0
88
88
88
88
ENDCHAR
STARTCHAR
ENCODING 105
SWIDTH 500 0
DWIDTH 6 0
BBX 5 7 0 0
BITMAP
20
00
E0
20
20
20
F8
ENDCHAR
STARTCHAR
ENCODING 106
SWIDTH 500 0
DWIDTH 6 0
BBX 5 8 0 -1
BITMAP
08
00
38
08
08
08
88
70
ENDCHAR
STARTCHAR
ENCODING 107
SWIDTH 500 0
DWIDTH 6 0
BBX 5 7 0 0
BITMAP
80
80
88
90
E0
90
88
ENDCHAR
STARTCHAR
ENCODING 108
SWIDTH 500 0
DWIDTH 6 0
BBX 5 7 0 0
BITMAP
E0
20
20
20
20
20
F8
ENDCHAR
STARTCHAR
ENCODING 109
SWIDTH 500 0
DWIDTH 6 0
BBX 5 5 0 0
BITMAP
50
A8
A8
88
88
ENDCHAR
STARTCHAR
ENCODING 110
SWIDTH 500 0
DWIDTH 6 0
BBX 5 5 0 0
BITMAP
70
88
88
88
88
ENDCHAR
STARTCHAR
ENCODING 111
SWIDTH 500 0
DWIDTH 6 0
BBX 5 5 0 0
BITMAP
70
88
88
88
70
ENDCHAR
STARTCHAR
ENCODING 112
SWIDTH 500 0
DWIDTH 6 0
BBX 5 7 0 -2
BITMAP
F0
88
88
88
F0
80
80
ENDCHAR
STARTCHAR
ENCODING 113
SWIDTH 500 0
DWIDTH 6 0
BBX 5 7 0 -2
BITMAP
78
88
88
88
78
08
08
ENDCHAR
STARTCHAR
ENCODING 114
SWIDTH 500 0
DWIDTH 6 0
BBX 5 5 0 0
BITMAP
70
88
80
80
80
ENDCHAR
STARTCHAR
ENCODING 115
SWIDTH 500 0
DWIDTH 6 0
BBX 5 5 0 0
BITMAP
78
80
70
08
F0
ENDCHAR
STARTCHAR
ENCODING 116
SWIDTH 500 0
DWIDTH 6 0
BBX 5 7 0 0
BITMAP
80
80
F0
80
80
88
70
ENDCHAR
STARTCHAR
ENCODING 117
SWIDTH 500 0
DWIDTH 6 0
BBX 5 5 0 0
BITMAP
88
88
88
88
70
ENDCHAR
STARTCHAR
ENCODING 118
SWIDTH 500 0
DWIDTH 6 0
BBX 5 5 0 0
BITMAP
88
88
88
50
20
ENDCHAR
STARTCHAR
ENCODING 119
SWIDTH 500 0
DWIDTH 6 0
BBX 5 5 0 0
BITMAP
88
88
A8
A8
50
ENDCHAR
STARTCHAR
ENCODING 120
SWIDTH 500 0
DWIDTH 6 0
BBX 5 5 0 0
BITMAP
88
50
20
50
88
ENDCHAR
STARTCHAR
ENCODING 121
SWIDTH 500 0
DWIDTH 6 0
BBX 5 7 0 -2
BITMAP
88
88
88
88
78
08
70
ENDCHAR
STARTCHAR
ENCODING 122
SWIDTH 500 0
DWIDTH 6 0
BBX 5 5 0 0
BITMAP
F8
10
20
40
F8
ENDCHAR
STARTCHAR
ENCODING 123
SWIDTH 500 0
DWIDTH 6 0
BBX 3 7 1 0
BITMAP
20
40
40
80
40
40
20
ENDCHAR
STARTCHAR
ENCODING 124
SWIDTH 500 0
DWIDTH 6 0
BBX 1 9 2 -1
BITMAP
80
80
80
80
80
80
80
80
80
ENDCHAR
STARTCHAR
ENCODING 125
SWIDTH 500 0
DWIDTH 6 0
BBX 3 7 2 0
BITMAP
80
40
40
20
40
40
80
ENDCHAR
STARTCHAR
ENCODING 126
SWIDTH 500 0
DWIDTH 6 0
BBX 5 3 0 2
BITMAP
40
A8
10
ENDCHAR
STARTCHAR
ENCODING 128
SWIDTH 500 0
DWIDTH 6 0
BBX 5 7 0 0
BITMAP
70
88
08
78
88
88
70
ENDCHAR
STARTCHAR
ENCODING 129
SWIDTH 500 0
DWIDTH 6 0
BBX 5 7 0 0
BITMAP
20
50
88
88
88
88
88
ENDCHAR
STARTCHAR
ENCODING 130
SWIDTH 500 0
DWIDTH 6 0
BBX 5 7 0 0
BITMAP
F0
08
08
F0
80
80
80
ENDCHAR
STARTCHAR
ENCODING 131
SWIDTH 500 0
DWIDTH 6 0
BBX 5 7 0 0
BITMAP
70
88
80
60
80
88
70
ENDCHAR
STARTCHAR
ENCODING 132
SWIDTH 500 0
DWIDTH 6 0
BBX 5 7 0 0
BITMAP
88
50
20
50
88
88
70
ENDCHAR
STARTCHAR
ENCODING 133
SWIDTH 500 0
DWIDTH 6 0
BBX 5 7 0 0
BITMAP
88
98
A8
C8
88
88
88
ENDCHAR
STARTCHAR
ENCODING 134
SWIDTH 500 0
DWIDTH 6 0
BBX 5 5 0 0
BITMAP
20
50
50
88
F8
ENDCHAR
ENDFONT